<svg width="49" height="48" viewBox="0 0 49 48" fill="none" xmlns="http://www.w3.org/2000/svg">
<g clip-path="url(#clip0_286_2272)">
<path fill-rule="evenodd" clip-rule="evenodd" d="M2.90718 14.2582C1.58238 14.2582 0.5 13.3129 0.5 12.0012V12.1172C0.5 10.8054 1.58238 9.50566 2.90718 9.50566H12.5072C13.832 9.50566 14.9 10.687 14.9 12.0012V12.1172C14.9 13.4314 13.832 14.2582 12.5072 14.2582H2.90718ZM36.5072 43.2486C35.1848 43.2486 34.1072 42.1815 34.1072 40.8721C34.1072 39.3013 35.1944 38.84 36.5072 38.3766C37.82 38.84 38.9072 39.3013 38.9072 40.8721C38.9072 42.1815 37.8296 43.2486 36.5072 43.2486ZM7.70718 43.2486C6.38478 43.2486 5.30718 42.1815 5.30718 40.8721C5.30718 39.3013 6.39438 38.84 7.70718 38.3766C9.01998 38.84 10.1072 39.3013 10.1072 40.8721C10.1072 42.1815 9.02958 43.2486 7.70718 43.2486ZM38.9 7.60195C38.9 6.28781 39.9824 4.75312 41.3072 4.75312H46.1072C47.432 4.75312 48.5 3.92569 48.5 2.61152V2.49551C48.5 1.18136 47.432 0 46.1072 0H38.9072C36.2552 0 34.1 2.60004 34.1 5.22598V28.517H10.1072C7.45518 28.517 5.3 31.117 5.3 33.743V34.1777C2.9 35.3089 -0.0832059 38.5929 0.643994 42.2953C1.19119 45.0924 3.52157 47.3666 6.35117 47.8775C10.9232 48.7022 14.9024 45.2471 14.9024 40.8721C14.9024 37.7708 12.5 35.1616 10.1 34.1777V33.2701H34.1V34.1777C31.7 35.3089 28.7168 38.5929 29.444 42.2953C29.9912 45.0924 32.3216 47.3666 35.1512 47.8775C39.7232 48.7022 43.7024 45.2471 43.7024 40.8721C43.7024 37.7708 41.3 35.1616 38.9 34.1777V7.60195Z" fill="#E0E0E0"/>
</g>
<defs>
<clipPath id="clip0_286_2272">
<rect width="48" height="48" fill="white" transform="translate(0.5)"/>
</clipPath>
</defs>
</svg>
