<svg xmlns="http://www.w3.org/2000/svg" width="25" height="25" viewBox="0 0 25 25" fill="none">
<path d="M12.6094 0.28125C5.91992 0.28125 0.5 5.70117 0.5 12.3906C0.5 19.0801 5.91992 24.5 12.6094 24.5C19.2988 24.5 24.7188 19.0801 24.7188 12.3906C24.7188 5.70117 19.2988 0.28125 12.6094 0.28125ZM15.3975 17.376L11.0908 14.2461C10.9395 14.1338 10.8516 13.958 10.8516 13.7725V5.55469C10.8516 5.23242 11.1152 4.96875 11.4375 4.96875H13.7812C14.1035 4.96875 14.3672 5.23242 14.3672 5.55469V12.2783L17.4678 14.5342C17.7314 14.7246 17.7852 15.0908 17.5947 15.3545L16.2178 17.249C16.0273 17.5078 15.6611 17.5664 15.3975 17.376Z" fill="white"/>
</svg>