<svg width="21" height="21" viewBox="0 0 21 21" fill="none" xmlns="http://www.w3.org/2000/svg">
<g id="fb">
<g id="fb_2">
<path id="Vector" d="M11.5 8.5C11.5 7.94772 11.9477 7.5 12.5 7.5H13.5C14.0523 7.5 14.5 7.05229 14.5 6.5C14.5 5.94772 14.0523 5.5 13.5 5.5H12.5C10.8431 5.5 9.5 6.84315 9.5 8.5V10.5H8.5C7.94772 10.5 7.5 10.9477 7.5 11.5C7.5 12.0523 7.94771 12.5 8.5 12.5H9.5V18.5C9.5 19.0523 9.9477 19.5 10.5 19.5C11.0523 19.5 11.5 19.0523 11.5 18.5V12.5H13.5C14.0523 12.5 14.5 12.0523 14.5 11.5C14.5 10.9477 14.0523 10.5 13.5 10.5H11.5V8.5Z" fill="#777E91"/>
</g>
<path id="Vector_2" fill-rule="evenodd" clip-rule="evenodd" d="M16.5 2.5H4.5C3.39543 2.5 2.5 3.39543 2.5 4.5V16.5C2.5 17.6046 3.39543 18.5 4.5 18.5H16.5C17.6046 18.5 18.5 17.6046 18.5 16.5V4.5C18.5 3.39543 17.6046 2.5 16.5 2.5ZM4.5 0.5C2.29086 0.5 0.5 2.29086 0.5 4.5V16.5C0.5 18.7091 2.29086 20.5 4.5 20.5H16.5C18.7091 20.5 20.5 18.7091 20.5 16.5V4.5C20.5 2.29086 18.7091 0.5 16.5 0.5H4.5Z" fill="#777E91"/>
</g>
</svg>
