<svg width="48" height="48" viewBox="0 0 48 48" fill="none" xmlns="http://www.w3.org/2000/svg">
<path d="M22.5401 2.04557C16.8856 2.51615 11.6204 5.11503 7.8079 9.31732C3.9954 13.5196 1.91971 19.0121 2.00005 24.6856V27.9996C2.00531 30.8327 3.01179 33.5727 4.84165 35.7356C6.6715 37.8985 9.20697 39.345 12 39.8196V43.9996C12 44.53 12.2108 45.0387 12.5858 45.4138C12.9609 45.7889 13.4696 45.9996 14 45.9996C14.5305 45.9996 15.0392 45.7889 15.4143 45.4138C15.7893 45.0387 16 44.53 16 43.9996V39.8196C19.0016 39.3094 21.6966 37.6762 23.538 35.2516C24.946 38.4451 27.2513 41.1609 30.1738 43.069C33.0962 44.977 36.5099 45.9951 40 45.9996C40.4611 45.9997 40.908 45.8405 41.2652 45.5489C41.6224 45.2573 41.8678 44.8513 41.96 44.3996L45.96 24.3996C45.9808 24.2671 45.9941 24.1335 46 23.9996C46.0004 20.9873 45.3821 18.007 44.1836 15.2435C42.985 12.4799 41.2317 9.99192 39.0323 7.93368C36.8328 5.87544 34.2342 4.29081 31.3973 3.27797C28.5604 2.26513 25.5457 1.84567 22.5401 2.04557ZM14 29.9996C13.6045 29.9996 13.2178 29.8823 12.8889 29.6625C12.56 29.4427 12.3037 29.1304 12.1523 28.7649C12.0009 28.3995 11.9613 27.9974 12.0385 27.6094C12.1156 27.2214 12.3061 26.8651 12.5858 26.5854C12.8655 26.3057 13.2219 26.1152 13.6099 26.038C13.9978 25.9608 14.4 26.0004 14.7654 26.1518C15.1309 26.3032 15.4432 26.5595 15.663 26.8884C15.8828 27.2173 16 27.604 16 27.9996C16 28.53 15.7893 29.0387 15.4143 29.4138C15.0392 29.7889 14.5305 29.9996 14 29.9996ZM38.378 41.9056C34.9705 41.5042 31.8285 39.867 29.5473 37.3041C27.266 34.7412 26.0039 31.4307 26 27.9996V25.9996H41.56L38.378 41.9056ZM24 21.9996C23.4696 21.9996 22.9609 22.2103 22.5858 22.5854C22.2108 22.9604 22 23.4691 22 23.9996V27.9996C21.9934 29.768 21.401 31.4844 20.3155 32.8804C19.2299 34.2765 17.7123 35.2735 16 35.7156V33.6316C17.3345 33.1598 18.4592 32.2314 19.1753 31.0106C19.8915 29.7898 20.153 28.3551 19.9136 26.9601C19.6743 25.5651 18.9495 24.2996 17.8674 23.3874C16.7852 22.4751 15.4154 21.9747 14 21.9747C12.5847 21.9747 11.2149 22.4751 10.1327 23.3874C9.05059 24.2996 8.3258 25.5651 8.08646 26.9601C7.84712 28.3551 8.10863 29.7898 8.82479 31.0106C9.54094 32.2314 10.6656 33.1598 12 33.6316V35.7156C10.2878 35.2735 8.77022 34.2765 7.68465 32.8804C6.59908 31.4844 6.00668 29.768 6.00005 27.9996V24.6856C5.92019 20.0283 7.60962 15.5141 10.7275 12.0536C13.8454 8.59313 18.1597 6.44392 22.8 6.03957C27.4245 5.73266 31.9893 7.22013 35.5452 10.1926C39.101 13.1652 41.3742 17.3939 41.892 21.9996H24Z" fill="#E0E0E0"/>
</svg>
