<svg width="21" height="21" viewBox="0 0 21 21" fill="none" xmlns="http://www.w3.org/2000/svg">
<g id="instagram">
<path id="Vector" fill-rule="evenodd" clip-rule="evenodd" d="M14.5 2.5H6.5C4.29086 2.5 2.5 4.29086 2.5 6.5V14.5C2.5 16.7091 4.29086 18.5 6.5 18.5H14.5C16.7091 18.5 18.5 16.7091 18.5 14.5V6.5C18.5 4.29086 16.7091 2.5 14.5 2.5ZM6.5 0.5C3.18629 0.5 0.5 3.18629 0.5 6.5V14.5C0.5 17.8137 3.18629 20.5 6.5 20.5H14.5C17.8137 20.5 20.5 17.8137 20.5 14.5V6.5C20.5 3.18629 17.8137 0.5 14.5 0.5H6.5Z" fill="#777E91"/>
<path id="Vector_2" d="M15.5 6.5C16.0523 6.5 16.5 6.05228 16.5 5.5C16.5 4.94772 16.0523 4.5 15.5 4.5C14.9477 4.5 14.5 4.94772 14.5 5.5C14.5 6.05228 14.9477 6.5 15.5 6.5Z" fill="#777E91"/>
<path id="Vector_3" fill-rule="evenodd" clip-rule="evenodd" d="M15.5 10.5C15.5 13.2614 13.2614 15.5 10.5 15.5C7.73858 15.5 5.5 13.2614 5.5 10.5C5.5 7.73858 7.73858 5.5 10.5 5.5C13.2614 5.5 15.5 7.73858 15.5 10.5ZM13.5 10.5C13.5 12.1569 12.1569 13.5 10.5 13.5C8.8431 13.5 7.5 12.1569 7.5 10.5C7.5 8.8431 8.8431 7.5 10.5 7.5C12.1569 7.5 13.5 8.8431 13.5 10.5Z" fill="#777E91"/>
</g>
</svg>
