<svg width="49" height="48" viewBox="0 0 49 48" fill="none" xmlns="http://www.w3.org/2000/svg">
<path d="M40.8395 27.163L34.6837 22.1776L37.1596 9.58913C37.2045 9.36066 37.0852 9.1322 36.8725 9.03859L31.8049 6.80738C31.7858 6.79898 31.7654 6.79565 31.7457 6.7898C31.734 6.78632 31.7232 6.78232 31.7113 6.77964C31.6573 6.76784 31.6027 6.7644 31.5482 6.77065C31.5366 6.7719 31.5257 6.77541 31.5141 6.7776C31.4625 6.78718 31.4127 6.80434 31.3658 6.83004C31.3609 6.83283 31.3553 6.83261 31.3504 6.83549C31.323 6.85153 28.5648 8.46385 24.5 8.46385C20.4353 8.46385 17.6771 6.85153 17.6497 6.83549C17.645 6.83272 17.6395 6.83288 17.6348 6.83029C17.5871 6.80398 17.5364 6.78658 17.4839 6.77707C17.4735 6.77523 17.4638 6.77198 17.4533 6.77074C17.3982 6.76433 17.3427 6.76797 17.2878 6.78008C17.2767 6.78252 17.2665 6.78626 17.2556 6.78957C17.2354 6.7955 17.2147 6.7989 17.1952 6.80738L12.1276 9.03859C11.9149 9.1322 11.7956 9.36066 11.8403 9.58913L14.3162 22.1776L8.16039 27.163C8.04402 27.2576 7.97632 27.3992 7.97632 27.5491V40.7357C7.97632 41.0102 8.19875 41.2324 8.473 41.2324H22.2683C22.4 41.2324 22.5264 41.18 22.6195 41.0869L24.5 39.2063L26.3803 41.0869C26.4735 41.18 26.5998 41.2324 26.7315 41.2324H40.5268C40.8011 41.2324 41.0236 41.0102 41.0236 40.7357V27.5491C41.0236 27.3992 40.9559 27.2576 40.8395 27.163ZM32.0879 8.01709L36.1083 9.78751L33.651 22.2795C33.6156 22.4604 33.6828 22.6457 33.8259 22.7616L36.4985 24.9259H28.5772C28.383 24.467 27.9281 24.144 27.3992 24.144H24.9968V19.7769C26.4335 19.1828 31.7831 16.412 32.0879 8.01709ZM27.6844 25.4226V28.6846C27.6844 28.8394 27.5537 28.9698 27.3992 28.9698H21.6007C21.4462 28.9698 21.3155 28.8394 21.3155 28.6846V25.4226C21.3155 25.2679 21.4462 25.1374 21.6007 25.1374H27.3992C27.5537 25.1374 27.6844 25.2679 27.6844 25.4226ZM24.5 9.4572C27.5987 9.4572 29.947 8.59957 31.0907 8.07796C30.7587 16.2811 25.4654 18.5617 24.5 18.9099C23.5347 18.5617 18.2414 16.2811 17.9094 8.07796C19.0531 8.59957 21.4014 9.4572 24.5 9.4572ZM15.174 22.7616C15.3171 22.6457 15.3843 22.4604 15.3488 22.2795L12.8918 9.78751L16.9122 8.01709C17.2168 16.408 22.5637 19.1815 24.0034 19.7771V24.144H21.6007C21.0717 24.144 20.6169 24.467 20.4226 24.9259H12.5013L15.174 22.7616ZM8.96971 27.7858L11.2746 25.9193H20.3221V28.1879H8.96971V27.7858ZM8.96971 29.1813H20.4226C20.6169 29.6403 21.0717 29.9632 21.6007 29.9632H24.0034V31.4363H21.6007C21.0717 31.4363 20.6169 31.7592 20.4226 32.2182H8.96971V29.1813ZM8.96971 33.2116H20.3221V35.4802H8.96971V33.2116ZM24.0034 38.2983L22.0627 40.239H8.96971V36.4735H20.4226C20.6169 36.9325 21.0717 37.2554 21.6007 37.2554H24.0034V38.2983ZM21.6007 36.262C21.4462 36.262 21.3155 36.1316 21.3155 35.9769V32.7149C21.3155 32.5602 21.4462 32.4297 21.6007 32.4297H27.3992C27.5537 32.4297 27.6844 32.5602 27.6844 32.7149V35.9769C27.6844 36.1316 27.5537 36.262 27.3992 36.262H21.6007ZM40.0302 40.239H26.9372L24.9968 38.2983V37.2554H27.3992C27.9281 37.2554 28.383 36.9325 28.5772 36.4735H40.0302V40.239ZM40.0302 35.4802H28.6778V33.2116H40.0302V35.4802ZM40.0302 32.2182H28.5772C28.383 31.7592 27.9281 31.4363 27.3992 31.4363H24.9968V29.9632H27.3992C27.9281 29.9632 28.383 29.6403 28.5772 29.1813H40.0302V32.2182ZM40.0302 28.1879H28.6778V25.9193H37.7252L40.0302 27.7858V28.1879Z" fill="#E0E0E0"/>
</svg>
