<svg width="21" height="21" viewBox="0 0 21 21" fill="none" xmlns="http://www.w3.org/2000/svg">
<g id="linkedin">
<path id="Vector" fill-rule="evenodd" clip-rule="evenodd" d="M16.5 2.5H4.5C3.39543 2.5 2.5 3.39543 2.5 4.5V16.5C2.5 17.6046 3.39543 18.5 4.5 18.5H16.5C17.6046 18.5 18.5 17.6046 18.5 16.5V4.5C18.5 3.39543 17.6046 2.5 16.5 2.5ZM4.5 0.5C2.29086 0.5 0.5 2.29086 0.5 4.5V16.5C0.5 18.7091 2.29086 20.5 4.5 20.5H16.5C18.7091 20.5 20.5 18.7091 20.5 16.5V4.5C20.5 2.29086 18.7091 0.5 16.5 0.5H4.5Z" fill="#777E91"/>
<path id="Vector_2" d="M5.5 6.5C6.05228 6.5 6.5 6.05228 6.5 5.5C6.5 4.94772 6.05228 4.5 5.5 4.5C4.94772 4.5 4.5 4.94772 4.5 5.5C4.5 6.05228 4.94772 6.5 5.5 6.5Z" fill="#777E91"/>
<path id="Vector_3" d="M5.5 8.5C4.94772 8.5 4.5 8.9477 4.5 9.5V15.5C4.5 16.0523 4.94772 16.5 5.5 16.5C6.05228 16.5 6.5 16.0523 6.5 15.5V9.5C6.5 8.9477 6.05228 8.5 5.5 8.5Z" fill="#777E91"/>
<path id="Vector_4" d="M12.5 10.5C11.3954 10.5 10.5 11.3954 10.5 12.5V15.5C10.5 16.0523 10.0523 16.5 9.5 16.5C8.9477 16.5 8.5 16.0523 8.5 15.5V9.5C8.5 8.9477 8.9477 8.5 9.5 8.5C9.9054 8.5 10.2544 8.7412 10.4114 9.0879C11.0193 8.715 11.7346 8.5 12.5 8.5C14.7091 8.5 16.5 10.2909 16.5 12.5V15.5C16.5 16.0523 16.0523 16.5 15.5 16.5C14.9477 16.5 14.5 16.0523 14.5 15.5V12.5C14.5 11.3954 13.6046 10.5 12.5 10.5Z" fill="#777E91"/>
</g>
</svg>
