<svg xmlns="http://www.w3.org/2000/svg" width="25" height="24" viewBox="0 0 25 24" fill="none">
                                    <path opacity="0.4" d="M10.5833 15.958H4.00777C3.17555 15.958 2.5 16.6217 2.5 17.4393C2.5 18.2559 3.17555 18.9207 4.00777 18.9207H10.5833C11.4155 18.9207 12.0911 18.2559 12.0911 17.4393C12.0911 16.6217 11.4155 15.958 10.5833 15.958Z" fill="#8A92A6" />
                                    <path opacity="0.4" d="M22.5001 6.37867C22.5001 5.56214 21.8246 4.89844 20.9934 4.89844H14.4179C13.5857 4.89844 12.9102 5.56214 12.9102 6.37867C12.9102 7.1963 13.5857 7.86 14.4179 7.86H20.9934C21.8246 7.86 22.5001 7.1963 22.5001 6.37867Z" fill="#8A92A6" />
                                    <path d="M9.37774 6.37856C9.37774 8.24523 7.83886 9.75821 5.93887 9.75821C4.03999 9.75821 2.5 8.24523 2.5 6.37856C2.5 4.51298 4.03999 3 5.93887 3C7.83886 3 9.37774 4.51298 9.37774 6.37856Z" fill="#8A92A6" />
                                    <path d="M22.5001 17.3992C22.5001 19.2648 20.9612 20.7777 19.0612 20.7777C17.1623 20.7777 15.6223 19.2648 15.6223 17.3992C15.6223 15.5325 17.1623 14.0195 19.0612 14.0195C20.9612 14.0195 22.5001 15.5325 22.5001 17.3992Z" fill="#8A92A6" />
                                </svg>