<svg width="52" height="20" viewBox="0 0 52 20" fill="none" xmlns="http://www.w3.org/2000/svg">
<path d="M0.672286 6.38859C1.11172 6.4627 1.52864 6.17026 1.60401 5.73527L1.60409 5.73482L1.60485 5.7307C1.60589 5.72512 1.60776 5.71526 1.61053 5.70139C1.61608 5.67364 1.62522 5.62998 1.63849 5.57269C1.66509 5.45793 1.70804 5.28963 1.77153 5.08584C1.89944 4.67533 2.10604 4.13605 2.4204 3.604C3.04859 2.54076 4.03833 1.59999 5.65446 1.59999C7.33666 1.59999 8.63725 2.59136 10.1993 3.82537L10.2825 3.89117C11.0993 4.53682 11.997 5.24644 13.0322 5.74571C13.8448 6.13764 14.7421 6.39994 15.7515 6.39994C16.7564 6.39994 17.6502 6.13994 18.46 5.75089C19.4997 5.25135 20.4008 4.53905 21.2205 3.89117L21.3037 3.82537C22.8657 2.59136 24.1663 1.59999 25.8485 1.59999C27.5307 1.59999 28.8313 2.59136 30.3933 3.82537L30.4766 3.89117C31.3039 4.54518 32.2143 5.26482 33.2665 5.765C34.0685 6.14622 34.9528 6.39994 35.9455 6.39994C36.9338 6.39994 37.8147 6.14848 38.6138 5.7701C39.6705 5.26972 40.5843 4.5474 41.4145 3.89117L41.4978 3.82537C43.0598 2.59136 44.3604 1.59999 46.0426 1.59999C47.6712 1.59999 48.7411 2.55501 49.4473 3.63485C49.7987 4.17223 50.0411 4.71578 50.1956 5.12827C50.2724 5.33323 50.3263 5.50249 50.3603 5.61798C50.3773 5.67564 50.3893 5.71963 50.3967 5.74768C50.4004 5.76169 50.4029 5.7717 50.4043 5.77741L50.4053 5.78133L50.4055 5.78218L50.4056 5.78254L50.4057 5.78282C50.5075 6.21227 50.9412 6.47917 51.3752 6.37911C51.8097 6.27893 52.0799 5.84888 51.9788 5.41857L51.1921 5.59995C51.9788 5.41857 51.9787 5.41825 51.9786 5.41791L51.9784 5.41714L51.978 5.41528L51.9768 5.41023L51.973 5.39495C51.9699 5.3825 51.9656 5.36555 51.9601 5.34441C51.949 5.30215 51.9328 5.24302 51.9111 5.16943C51.8677 5.02241 51.802 4.81668 51.7102 4.57164C51.5276 4.08414 51.2366 3.4277 50.8033 2.7651C49.94 1.44495 48.4352 0 46.0426 0C43.7474 0 42.0316 1.3563 40.5736 2.50877L40.4903 2.57458C38.9283 3.80858 37.6277 4.79996 35.9455 4.79996C34.2633 4.79996 32.9628 3.80858 31.4007 2.57458L31.3175 2.50877C29.8595 1.3563 28.1437 0 25.8485 0C23.5533 0 21.8375 1.3563 20.3796 2.50877L20.2963 2.57458C18.7343 3.80858 17.4337 4.79996 15.7515 4.79996C14.0693 4.79996 12.7687 3.80858 11.2067 2.57458L11.1234 2.50877C9.66547 1.3563 7.94965 0 5.65446 0C3.24937 0 1.81583 1.45921 1.02604 2.79594C0.631404 3.46388 0.380346 4.12459 0.227835 4.61407C0.151123 4.86028 0.0981695 5.06697 0.0639254 5.21471C0.0467814 5.28867 0.0342627 5.34814 0.025756 5.3907C0.0215009 5.41199 0.0182444 5.42907 0.0159104 5.44166L0.0130902 5.45713L0.01218 5.46227L0.0118468 5.46418L0.0117102 5.46497C0.0116502 5.46532 0.0115935 5.46565 0.807892 5.59995L0.0115935 5.46565C-0.0632996 5.9012 0.232502 6.31442 0.672286 6.38859Z" fill="url(#paint0_linear_254_3084)"/>
<path d="M1.60401 12.5352C1.52864 12.9702 1.11172 13.2626 0.672286 13.1885C0.232502 13.1144 -0.0632996 12.7011 0.0115935 12.2656L0.807892 12.3999C0.0115935 12.2656 0.0116502 12.2653 0.0117102 12.2649L0.0118468 12.2641L0.01218 12.2622L0.0130902 12.2571L0.0159104 12.2416C0.0182444 12.229 0.0215009 12.2119 0.025756 12.1906C0.0342627 12.1481 0.0467814 12.0886 0.0639254 12.0147C0.0981695 11.8669 0.151123 11.6602 0.227835 11.414C0.380346 10.9245 0.631404 10.2638 1.02604 9.59588C1.81583 8.25915 3.24937 6.79994 5.65446 6.79994C7.94965 6.79994 9.66547 8.15624 11.1234 9.30871L11.2067 9.37451C12.7687 10.6085 14.0693 11.5999 15.7515 11.5999C17.4337 11.5999 18.7343 10.6085 20.2963 9.37451L20.3796 9.30871C21.8375 8.15624 23.5533 6.79994 25.8485 6.79994C28.1437 6.79994 29.8595 8.15624 31.3175 9.30871L31.4007 9.37451C32.9628 10.6085 34.2633 11.5999 35.9455 11.5999C37.6277 11.5999 38.9283 10.6085 40.4903 9.37451L40.5736 9.30871C42.0316 8.15624 43.7474 6.79994 46.0426 6.79994C48.4352 6.79994 49.94 8.24489 50.8033 9.56503C51.2366 10.2276 51.5276 10.8841 51.7102 11.3716C51.802 11.6166 51.8677 11.8224 51.9111 11.9694C51.9328 12.043 51.949 12.1021 51.9601 12.1444C51.9656 12.1655 51.9699 12.1824 51.973 12.1949L51.9768 12.2102L51.978 12.2152L51.9784 12.2171L51.9786 12.2179C51.9787 12.2182 51.9788 12.2185 51.1921 12.3999L51.9788 12.2185C52.0799 12.6488 51.8097 13.0789 51.3752 13.179C50.9412 13.2791 50.5075 13.0122 50.4057 12.5828L50.4056 12.5825L50.4055 12.5821L50.4053 12.5813L50.4043 12.5774C50.4029 12.5716 50.4004 12.5616 50.3967 12.5476C50.3893 12.5196 50.3773 12.4756 50.3603 12.4179C50.3263 12.3024 50.2724 12.1332 50.1956 11.9282C50.0411 11.5157 49.7987 10.9722 49.4473 10.4348C48.7411 9.35495 47.6712 8.39993 46.0426 8.39993C44.3604 8.39993 43.0598 9.3913 41.4978 10.6253L41.4145 10.6911C40.5843 11.3473 39.6705 12.0697 38.6138 12.57C37.8147 12.9484 36.9338 13.1999 35.9455 13.1999C34.9528 13.1999 34.0685 12.9462 33.2665 12.5649C32.2143 12.0648 31.3039 11.3451 30.4766 10.6911L30.3933 10.6253C28.8313 9.3913 27.5307 8.39993 25.8485 8.39993C24.1663 8.39993 22.8657 9.3913 21.3037 10.6253L21.2205 10.6911C20.4008 11.339 19.4997 12.0513 18.46 12.5508C17.6502 12.9399 16.7564 13.1999 15.7515 13.1999C14.7421 13.1999 13.8448 12.9376 13.0322 12.5457C11.997 12.0464 11.0993 11.3368 10.2825 10.6911L10.1993 10.6253C8.63725 9.3913 7.33666 8.39993 5.65446 8.39993C4.03833 8.39993 3.04859 9.34069 2.4204 10.4039C2.10604 10.936 1.89944 11.4753 1.77153 11.8858C1.70804 12.0896 1.66509 12.2579 1.63849 12.3726C1.62522 12.4299 1.61608 12.4736 1.61053 12.5013C1.60776 12.5152 1.60589 12.5251 1.60485 12.5306L1.60409 12.5348L1.60401 12.5352Z" fill="url(#paint1_linear_254_3084)"/>
<path d="M1.60409 19.3347L1.60406 19.3349C1.5288 19.77 1.11181 20.0626 0.672286 19.9885C0.232502 19.9143 -0.0632996 19.5011 0.0115935 19.0655L0.807892 19.1998C0.0115935 19.0655 0.0116502 19.0652 0.0117102 19.0648L0.0118468 19.0641L0.01218 19.0622L0.0130902 19.057L0.0159104 19.0415C0.0182444 19.029 0.0215009 19.0119 0.025756 18.9906C0.0342627 18.948 0.0467814 18.8886 0.0639254 18.8146C0.0981695 18.6669 0.151123 18.4602 0.227835 18.2139C0.380346 17.7245 0.631404 17.0638 1.02604 16.3958C1.81583 15.0591 3.24937 13.5999 5.65446 13.5999C7.94965 13.5999 9.66547 14.9562 11.1234 16.1086L11.2067 16.1745C12.7687 17.4085 14.0693 18.3998 15.7515 18.3998C17.4337 18.3998 18.7343 17.4085 20.2963 16.1745L20.3796 16.1086C21.8375 14.9562 23.5533 13.5999 25.8485 13.5999C28.1437 13.5999 29.8595 14.9562 31.3175 16.1087L31.4007 16.1745C32.9628 17.4085 34.2633 18.3998 35.9455 18.3998C37.6277 18.3998 38.9283 17.4085 40.4903 16.1745L40.5736 16.1087C42.0316 14.9562 43.7474 13.5999 46.0426 13.5999C48.4352 13.5999 49.94 15.0448 50.8033 16.365C51.2366 17.0276 51.5276 17.684 51.7102 18.1715C51.802 18.4166 51.8677 18.6223 51.9111 18.7693C51.9328 18.8429 51.949 18.902 51.9601 18.9443C51.9656 18.9654 51.9699 18.9824 51.973 18.9948L51.9768 19.0101L51.978 19.0152L51.9784 19.017L51.9786 19.0178C51.9787 19.0181 51.9788 19.0184 51.1921 19.1998L51.9788 19.0184C52.0799 19.4488 51.8097 19.8788 51.3752 19.979C50.9412 20.079 50.5075 19.8121 50.4057 19.3827L50.4056 19.3824L50.4055 19.3821L50.4053 19.3812L50.4043 19.3773C50.4037 19.3747 50.4028 19.3712 50.4017 19.3669C50.4004 19.3617 50.3987 19.3552 50.3967 19.3476C50.3893 19.3195 50.3773 19.2755 50.3603 19.2179C50.3263 19.1024 50.2724 18.9331 50.1956 18.7282C50.0411 18.3157 49.7987 17.7721 49.4473 17.2347C48.7411 16.1549 47.6712 15.1999 46.0426 15.1999C44.3604 15.1999 43.0598 16.1912 41.4978 17.4252L41.4145 17.491C40.5843 18.1473 39.6705 18.8696 38.6138 19.37C37.8147 19.7484 36.9338 19.9998 35.9455 19.9998C34.9528 19.9998 34.0685 19.7461 33.2665 19.3649C32.2143 18.8647 31.3039 18.1451 30.4766 17.491L30.3933 17.4252C28.8313 16.1912 27.5307 15.1999 25.8485 15.1999C24.1663 15.1999 22.8657 16.1912 21.3037 17.4252L21.2205 17.4911C20.4008 18.1389 19.4997 18.8512 18.46 19.3508C17.6502 19.7398 16.7564 19.9998 15.7515 19.9998C14.7421 19.9998 13.8448 19.7375 13.0322 19.3456C11.997 18.8463 11.0993 18.1367 10.2825 17.4911L10.1993 17.4252C8.63725 16.1912 7.33666 15.1999 5.65446 15.1999C4.03833 15.1999 3.04859 16.1406 2.4204 17.2039C2.10604 17.7359 1.89944 18.2752 1.77153 18.6857C1.70804 18.8895 1.66509 19.0578 1.63849 19.1726C1.62522 19.2299 1.61608 19.2735 1.61053 19.3013C1.60776 19.3151 1.60589 19.325 1.60485 19.3306L1.60409 19.3347Z" fill="url(#paint2_linear_254_3084)"/>
<defs>
<linearGradient id="paint0_linear_254_3084" x1="26" y1="8.5" x2="1.95383e-07" y2="8.5" gradientUnits="userSpaceOnUse">
<stop offset="0.421875" stop-color="#8B4513"/>
<stop offset="1" stop-color="#F5B318" stop-opacity="0"/>
</linearGradient>
<linearGradient id="paint1_linear_254_3084" x1="26" y1="8.5" x2="1.95383e-07" y2="8.5" gradientUnits="userSpaceOnUse">
<stop offset="0.421875" stop-color="#8B4513"/>
<stop offset="1" stop-color="#F5B318" stop-opacity="0"/>
</linearGradient>
<linearGradient id="paint2_linear_254_3084" x1="26" y1="8.5" x2="1.95383e-07" y2="8.5" gradientUnits="userSpaceOnUse">
<stop offset="0.421875" stop-color="#8B4513"/>
<stop offset="1" stop-color="#F5B318" stop-opacity="0"/>
</linearGradient>
</defs>
</svg>
