<svg width="49" height="48" viewBox="0 0 49 48" fill="none" xmlns="http://www.w3.org/2000/svg">
<path d="M38.9442 47.086L35.3647 22.5784C35.1144 20.8615 34.3198 19.2919 33.1035 18.0791C34.7109 16.1082 35.585 13.6651 35.585 11.0873C35.585 8.12578 34.4317 5.34159 32.3377 3.24741C30.2435 1.15331 27.4592 0 24.4979 0C21.5363 0 18.7521 1.15331 16.6579 3.24741C12.6066 7.29872 12.3522 13.7311 15.8944 18.0817C14.6795 19.294 13.8855 20.8627 13.6352 22.5781L10.0558 47.086C10.0222 47.3154 10.0902 47.5482 10.2419 47.7237C10.3935 47.8992 10.614 48 10.8459 48H38.154C38.3859 48 38.6063 47.8992 38.758 47.7237C38.9099 47.5482 38.9777 47.3155 38.9442 47.086ZM17.7871 4.37662C19.5796 2.58422 21.963 1.59703 24.4979 1.59703C27.0328 1.59703 29.416 2.58422 31.2085 4.37662C33.0009 6.16912 33.9881 8.55234 33.9881 11.0872C33.9881 13.6222 33.001 16.0054 31.2085 17.7979L25.2964 23.7099V21.4514L30.0792 16.6687C32.0405 14.7073 32.8317 11.8177 32.1438 9.12722C31.887 8.12278 31.2012 7.28634 30.2622 6.83231C29.2879 6.36131 28.1577 6.34603 27.1615 6.79041C26.3216 7.16512 25.4253 7.35516 24.4978 7.35516C23.5702 7.35516 22.674 7.16522 21.834 6.79059C20.8376 6.34612 19.7073 6.36131 18.7333 6.8325C17.7944 7.28662 17.1085 8.12316 16.8518 9.12741C16.164 11.8178 16.9551 14.7075 18.9165 16.6688L23.6993 21.4517V23.7101L17.7872 17.7981C14.0869 14.0977 14.0869 8.07694 17.7871 4.37662ZM23.6993 46.403H11.7696L15.2156 22.8088C15.4131 21.4555 16.0338 20.2165 16.983 19.2522L23.6993 25.9685V46.403ZM20.0457 15.5393C18.4813 13.9748 17.8501 11.6693 18.399 9.52275C18.5411 8.96728 18.9067 8.52234 19.4286 8.26997C19.7111 8.13337 20.0173 8.06494 20.325 8.06494C20.616 8.06494 20.9085 8.12616 21.1834 8.24878C22.2295 8.71528 23.3445 8.95191 24.4978 8.95191C25.6509 8.95191 26.766 8.71538 27.812 8.24869C28.3774 7.99631 29.017 8.004 29.5667 8.26987C30.0886 8.52234 30.4544 8.96728 30.5964 9.52266C31.1452 11.6693 30.5143 13.9747 28.9498 15.5392L24.4978 19.9914L20.0457 15.5393ZM25.2963 46.403V25.9685L32.015 19.2498C32.9655 20.2145 33.5869 21.4542 33.7845 22.8089L37.2305 46.403H25.2963Z" fill="#E0E0E0"/>
<path d="M34.8945 40.347L32.4991 34.5981C32.3293 34.191 31.8618 33.9984 31.4548 34.1681C31.0478 34.3377 30.8553 34.8053 31.0249 35.2124L33.4203 40.9614C33.5481 41.268 33.8449 41.4529 34.1577 41.4529C34.26 41.4529 34.3642 41.4331 34.4646 41.3912C34.8716 41.2217 35.0641 40.7542 34.8945 40.347Z" fill="#E0E0E0"/>
<path d="M17.5454 34.1681C17.1384 33.9985 16.6709 34.1909 16.5012 34.598L14.1058 40.347C13.9362 40.7541 14.1286 41.2216 14.5357 41.3912C14.6361 41.4331 14.7401 41.4529 14.8425 41.4529C15.1552 41.4529 15.4522 41.268 15.58 40.9614L17.9754 35.2125C18.145 34.8052 17.9525 34.3377 17.5454 34.1681Z" fill="#E0E0E0"/>
</svg>
