<svg width="48" height="48" viewBox="0 0 48 48" fill="none" xmlns="http://www.w3.org/2000/svg">
<g clip-path="url(#clip0_286_2279)">
<path d="M43.8694 3.11211C43.2378 2.47987 42.3749 2.13093 41.4404 2.13093C40.3906 2.13093 39.3331 2.57332 38.5223 3.34809L35.0423 6.17277L34.9069 6.29579C34.1374 7.06406 33.8346 8.14342 34.0209 9.23047L25.9082 17.1078L24.5467 15.9296C25.5226 12.1131 25.4026 7.02917 22.1112 3.73785C19.7012 1.32776 16.6174 0 13.429 0C12.1616 0 10.9089 0.211733 9.70536 0.628692C9.15415 0.819724 8.73187 1.26921 8.57632 1.83166C8.42077 2.39412 8.55148 2.99619 8.92527 3.44391L13.2977 8.6698L13.0824 12.0309L9.44868 12.4455L4.26124 8.10557C3.81352 7.7306 3.21085 7.5999 2.6484 7.75663C2.08595 7.91276 1.63646 8.33505 1.44543 8.88626C0.0283596 12.9784 1.27687 17.3857 4.871 20.9775C6.80735 22.915 9.59536 23.9388 12.9322 23.9388C13.1765 23.9388 13.4225 23.9264 13.6685 23.9145C13.5449 24.0222 13.4207 24.1286 13.3036 24.2457L3.33624 34.2125C0.568928 36.9799 0.568928 41.4818 3.33624 44.2491L5.00821 45.9211C6.3484 47.2619 8.13097 48 10.0265 48C11.922 48 13.7046 47.2619 15.0448 45.9211L25.0116 35.9537C25.564 35.4019 25.9987 34.7815 26.3264 34.1185L35.1795 44.3479C35.2079 44.3804 35.2375 44.4112 35.267 44.4419C36.2595 45.4338 37.7487 45.9803 39.4627 45.9803C41.5451 45.9803 43.6589 45.1611 44.9783 43.8422C47.2979 41.5226 48.0289 36.5871 45.5769 34.1333C45.5455 34.1031 45.5154 34.0736 45.4828 34.0469L32.5926 22.8937L40.0292 15.2353C40.2339 15.2702 40.4385 15.2873 40.6449 15.2873C41.5356 15.2873 42.3577 14.9544 42.961 14.3517L45.9087 10.7363C46.5835 10.0313 47.0058 9.14235 47.1039 8.22208C47.2181 7.14449 46.8686 6.11186 46.1452 5.38913L43.8694 3.11211ZM22.5028 33.4449L12.536 43.4123C11.8659 44.0824 10.9746 44.4514 10.0265 44.4514C9.07845 44.4514 8.18775 44.0824 7.51707 43.4123L5.84509 41.7403C4.46173 40.3563 4.46173 38.1054 5.84509 36.7226L15.8125 26.7546C16.4826 26.0845 17.3739 25.7154 18.3213 25.7154C18.5999 25.7154 18.8726 25.7521 19.1369 25.813L23.536 30.8964C23.5466 31.8173 23.2042 32.7434 22.5028 33.4449ZM42.4683 41.3334C41.8112 41.9905 40.6029 42.4317 39.4615 42.4317C38.7452 42.4317 38.1331 42.2584 37.8096 41.965L18.9973 20.2287C18.526 19.684 17.7713 19.4782 17.09 19.7083C15.7652 20.1542 14.3274 20.3896 12.9316 20.3896C10.5907 20.3896 8.6189 19.7071 7.37985 18.4675C6.2585 17.3461 4.68352 15.3624 4.44813 12.8891L7.75423 15.6552C8.12683 15.9675 8.61003 16.1124 9.09441 16.0574L14.9585 15.3879C15.8119 15.2903 16.4731 14.5959 16.5275 13.7384L16.883 8.18837C16.912 7.73356 16.7653 7.28585 16.4731 6.9369L13.6407 3.55155C15.8072 3.61069 17.9162 4.5623 19.6006 6.2467C21.9178 8.56452 21.8676 12.9056 20.8397 15.9586C20.6096 16.6411 20.8154 17.3952 21.3601 17.8666L43.0994 36.6788C43.8877 37.5417 43.7014 40.0997 42.4683 41.3334ZM43.3288 8.30074L40.545 11.7145C40.516 11.7032 40.4835 11.6879 40.448 11.6666L39.2432 10.9509L29.9063 20.5676L28.601 19.4386L38.3064 10.0141L37.5914 8.81056C37.5707 8.77389 37.5541 8.74136 37.544 8.71297L40.8212 6.05212L40.9572 5.9291C41.134 5.75345 41.3109 5.69253 41.4209 5.68248L43.5772 7.83884C43.5701 7.92755 43.5128 8.11622 43.3288 8.30074Z" fill="#E0E0E0"/>
</g>
<defs>
<clipPath id="clip0_286_2279">
<rect width="48" height="48" fill="white"/>
</clipPath>
</defs>
</svg>
