<svg width="49" height="48" viewBox="0 0 49 48" fill="none" xmlns="http://www.w3.org/2000/svg">
<g clip-path="url(#clip0_286_2284)">
<path d="M33.2134 36.4626C34.274 36.4626 35.1334 35.6031 35.1334 34.5426V9.63057C35.1334 8.57002 34.274 7.71057 33.2134 7.71057H15.8854C14.8249 7.71057 13.9654 8.57002 13.9654 9.63057V34.5426C13.9654 35.6031 14.8249 36.4626 15.8854 36.4626H33.2134ZM33.2134 38.3826H15.8854C13.7645 38.3826 12.0454 36.6635 12.0454 34.5426V9.63057C12.0454 7.50966 13.7645 5.79057 15.8854 5.79057H33.2134C35.3343 5.79057 37.0534 7.50966 37.0534 9.63057V34.5426C37.0534 36.6635 35.3343 38.3826 33.2134 38.3826ZM20.7392 4.85457H28.3592C28.8894 4.85457 29.3192 4.42477 29.3192 3.89457C29.3192 3.36437 28.8894 2.93457 28.3592 2.93457H20.7392C20.209 2.93457 19.7792 3.36437 19.7792 3.89457C19.7792 4.42477 20.209 4.85457 20.7392 4.85457Z" fill="#E0E0E0"/>
<path d="M36.1185 46.0622C38.2393 46.0622 39.9585 44.3431 39.9585 42.2222V5.76C39.9585 3.63914 38.2393 1.92 36.1185 1.92H12.9801C10.8592 1.92 9.14009 3.63914 9.14009 5.76V42.2222C9.14009 44.3431 10.8592 46.0622 12.9801 46.0622H36.1185ZM36.1185 47.9822H12.9801C9.79887 47.9822 7.22009 45.4034 7.22009 42.2222V5.76C7.22009 2.57878 9.79887 0 12.9801 0H36.1185C39.2997 0 41.8785 2.57878 41.8785 5.76V42.2222C41.8785 45.4034 39.2997 47.9822 36.1185 47.9822Z" fill="#E0E0E0"/>
<path d="M25.5092 42.2218C25.5092 41.6917 25.0793 41.2618 24.5492 41.2618C24.0191 41.2618 23.5892 41.6917 23.5892 42.2218C23.5892 42.7519 24.0191 43.1818 24.5492 43.1818C25.0793 43.1818 25.5092 42.7519 25.5092 42.2218ZM27.4292 42.2218C27.4292 43.8123 26.1397 45.1018 24.5492 45.1018C22.9587 45.1018 21.6692 43.8123 21.6692 42.2218C21.6692 40.6313 22.9587 39.3418 24.5492 39.3418C26.1397 39.3418 27.4292 40.6313 27.4292 42.2218Z" fill="#E0E0E0"/>
</g>
<defs>
<clipPath id="clip0_286_2284">
<rect width="48" height="48" fill="white" transform="translate(0.5)"/>
</clipPath>
</defs>
</svg>
