<svg width="23" height="19" viewBox="0 0 23 19" fill="none" xmlns="http://www.w3.org/2000/svg">
<g id="twitter">
<path id="Vector" fill-rule="evenodd" clip-rule="evenodd" d="M2.61591 11.4998C0.950388 11.5045 -0.124748 13.3884 0.90132 14.8157C2.37075 16.8596 5.03539 18.5 9.48393 18.5C16.3779 18.5 21.9117 12.9217 21.137 6.3311L22.2719 4.0773C23.059 2.51428 21.6913 0.73622 19.9655 1.07894L18.4661 1.37669C18.0686 1.16843 17.6571 1.01127 17.3056 0.89741C16.6203 0.67552 15.7909 0.5 15.0232 0.5C13.6441 0.5 12.4539 0.85131 11.508 1.55593C10.5728 2.25264 10.0461 3.16825 9.75707 4.00905C9.62382 4.39661 9.53509 4.78534 9.47816 5.15843C8.9431 4.99123 8.39752 4.76626 7.8634 4.49155C6.65161 3.86832 5.67172 3.07822 5.11895 2.38551C4.19155 1.2233 2.22618 1.30947 1.53651 2.82021C0.564483 4.94947 0.831123 7.47346 1.70485 9.5129C1.99771 10.1964 2.37866 10.8721 2.84407 11.4983C2.76439 11.4992 2.68817 11.4996 2.61591 11.4998ZM9.48383 16.5C5.59292 16.5 3.58099 15.1007 2.54067 13.6537C2.49393 13.5887 2.54106 13.5 2.6215 13.4998C3.67984 13.4968 5.85223 13.4471 7.28499 12.6145C7.35908 12.5714 7.34278 12.4629 7.2614 12.4358C3.92156 11.3208 2.02308 6.59859 3.37101 3.6459C3.40192 3.5782 3.49357 3.56927 3.54007 3.62754C5.07985 5.55718 8.44651 7.4472 11.3756 7.49891C11.4392 7.5 11.4872 7.4427 11.4776 7.38033C11.3595 6.62053 10.9088 2.5 15.0231 2.5C16.0055 2.5 17.4673 2.97583 18.0057 3.4633C18.0306 3.48583 18.0643 3.49606 18.0974 3.4895L20.3604 3.0401C20.4426 3.02378 20.5077 3.10845 20.4703 3.18288L19.0666 5.97019C19.0569 5.98954 19.0538 6.01175 19.0576 6.03306C20.0406 11.52 15.5146 16.5 9.48383 16.5Z" fill="#777E91"/>
</g>
</svg>
